<?xml version="1.0" encoding="UTF-8" standalone="no"?>
<!-- Created with Inkscape (http://www.inkscape.org/) -->

<svg
   width="210mm"
   height="297mm"
   viewBox="0 0 210 297"
   version="1.1"
   id="svg1"
   inkscape:version="1.3.2 (091e20e, 2023-11-25, custom)"
   xmlns:inkscape="http://www.inkscape.org/namespaces/inkscape"
   xmlns:sodipodi="http://sodipodi.sourceforge.net/DTD/sodipodi-0.dtd"
   xmlns="http://www.w3.org/2000/svg"
   xmlns:svg="http://www.w3.org/2000/svg">
  <sodipodi:namedview
     id="namedview1"
     pagecolor="#ffffff"
     bordercolor="#000000"
     borderopacity="0.25"
     inkscape:showpageshadow="2"
     inkscape:pageopacity="0.0"
     inkscape:pagecheckerboard="0"
     inkscape:deskcolor="#d1d1d1"
     inkscape:document-units="mm"
     inkscape:zoom="0.66903058"
     inkscape:cx="388.62199"
     inkscape:cy="550.79694"
     inkscape:window-width="1920"
     inkscape:window-height="986"
     inkscape:window-x="-11"
     inkscape:window-y="-11"
     inkscape:window-maximized="1"
     inkscape:current-layer="layer1" />
  <defs
     id="defs1">
    <pattern
       id="EMFhbasepattern"
       patternUnits="userSpaceOnUse"
       width="6"
       height="6"
       x="0"
       y="0" />
  </defs>
  <g
     inkscape:label="Layer 1"
     inkscape:groupmode="layer"
     id="layer1">
    <path
       style="fill:#3a922e;stroke-width:1.94775"
       d="m 132.56551,182.00987 c -11.1137,-18.30782 -11.1137,-18.30782 -1.48216,-33.69646 10.48075,-16.74542 13.47444,-19.23076 15.07613,-12.51615 0.83779,3.51208 2.63972,4.38332 9.06565,4.38332 10.23924,0 10.1073,-1.35734 -1.99787,-20.55382 -12.09031,-19.17291 -12.00659,-19.50896 7.16005,-28.742965 17.30717,-8.338146 17.55441,-8.198877 32.02245,18.037535 14.61722,26.50696 -6.29019,77.34998 -32.96285,80.15961 -8.46861,0.89206 -10.1429,1.8159 -11.13365,6.14335 -1.83891,8.03223 -3.89988,6.30281 -15.74775,-13.21442 z m -48.409724,9.71683 c -18.398609,-0.92784 -21.675549,-1.65802 -24.097273,-5.36939 -25.480769,-39.05013 -32.19493,-57.79402 -26.85559,-74.97265 2.659007,-8.55501 2.76552,-11.08042 0.650097,-15.413643 -3.466995,-7.101776 -2.769688,-7.433349 16.726491,-7.953209 17.145896,-0.457202 17.145896,-0.457202 24.743174,19.870902 9.074375,24.28043 9.085317,24.40045 2.070144,22.71134 -4.630927,-1.11503 -5.901568,-0.42985 -7.836591,4.22591 -3.846152,9.25402 -3.139564,9.65013 17.213081,9.65013 23.266411,0 22.541801,-0.80024 24.521161,27.08004 1.64829,23.21697 3.65752,21.72341 -27.134694,20.17057 z M 69.558983,80.869439 C 51.007187,69.677178 51.270213,71.767996 65.470588,48.370824 79.466119,25.311151 77.384342,26.349612 109.61542,26.349612 c 33.05953,0 35.73068,0.889095 44.95386,14.963023 4.24972,6.484722 8.57851,10.810034 10.81878,10.810034 4.92122,0 4.76364,1.380612 -2.061,18.055695 -6.52932,15.953617 -5.1831,15.435347 -29.045,11.182049 -18.7598,-3.343828 -19.91708,-4.09429 -15.17408,-9.839756 3.28901,-3.98422 3.30607,-4.597248 0.26934,-9.678077 -4.92154,-8.23427 -7.17403,-6.784749 -18.34598,11.805996 -12.073295,20.090565 -10.67273,19.769238 -31.472357,7.220863 z"
       id="path1" />
  </g>
</svg>
