<?xml version="1.0" encoding="UTF-8" standalone="no"?>
<!-- Created with Inkscape (http://www.inkscape.org/) -->

<svg
   width="210mm"
   height="297mm"
   viewBox="0 0 210 297"
   version="1.1"
   id="svg1"
   inkscape:version="1.3.2 (091e20e, 2023-11-25, custom)"
   sodipodi:docname="drawing.svg"
   xmlns:inkscape="http://www.inkscape.org/namespaces/inkscape"
   xmlns:sodipodi="http://sodipodi.sourceforge.net/DTD/sodipodi-0.dtd"
   xmlns="http://www.w3.org/2000/svg"
   xmlns:svg="http://www.w3.org/2000/svg">
  <sodipodi:namedview
     id="namedview1"
     pagecolor="#ffffff"
     bordercolor="#000000"
     borderopacity="0.25"
     inkscape:showpageshadow="2"
     inkscape:pageopacity="0.0"
     inkscape:pagecheckerboard="0"
     inkscape:deskcolor="#d1d1d1"
     inkscape:document-units="mm"
     inkscape:zoom="0.66903058"
     inkscape:cx="389.36935"
     inkscape:cy="550.79695"
     inkscape:window-width="1920"
     inkscape:window-height="986"
     inkscape:window-x="-11"
     inkscape:window-y="-11"
     inkscape:window-maximized="1"
     inkscape:current-layer="layer1" />
  <defs
     id="defs1">
    <inkscape:path-effect
       effect="powerstroke"
       id="path-effect4"
       is_visible="true"
       lpeversion="1.3"
       scale_width="1"
       interpolator_type="CentripetalCatmullRom"
       interpolator_beta="0.75"
       start_linecap_type="round"
       end_linecap_type="round"
       offset_points="13.176467,5.9320904"
       linejoin_type="spiro"
       miter_limit="4"
       not_jump="true"
       sort_points="true"
       message="&lt;b&gt;Ctrl + click&lt;/b&gt; on existing node and move it" />
    <inkscape:path-effect
       effect="simplify"
       id="path-effect3"
       is_visible="true"
       lpeversion="1.3"
       threshold="0.012"
       steps="1"
       smooth_angles="0"
       helper_size="0"
       simplify_individual_paths="false"
       simplify_just_coalesce="false"
       step="1" />
    <inkscape:path-effect
       effect="powerstroke"
       id="path-effect2"
       is_visible="true"
       lpeversion="1.3"
       scale_width="1"
       interpolator_type="CentripetalCatmullRom"
       interpolator_beta="0.75"
       start_linecap_type="round"
       end_linecap_type="round"
       offset_points="4.1975076,5.9320904"
       linejoin_type="spiro"
       miter_limit="4"
       not_jump="true"
       sort_points="true"
       message="&lt;b&gt;Ctrl + click&lt;/b&gt; on existing node and move it" />
    <inkscape:path-effect
       effect="simplify"
       id="path-effect1"
       is_visible="true"
       lpeversion="1.3"
       threshold="0.012"
       steps="1"
       smooth_angles="0"
       helper_size="0"
       simplify_individual_paths="false"
       simplify_just_coalesce="false"
       step="1" />
    <pattern
       id="EMFhbasepattern"
       patternUnits="userSpaceOnUse"
       width="6"
       height="6"
       x="0"
       y="0" />
  </defs>
  <g
     inkscape:label="Layer 1"
     inkscape:groupmode="layer"
     id="layer1">
    <path
       style="fill:#3a922e;stroke-width:1.94775"
       d="m 128.21531,215.62505 c -11.1137,-18.30782 -11.1137,-18.30782 -1.48216,-33.69646 10.48075,-16.74542 13.47444,-19.23076 15.07613,-12.51615 0.83779,3.51208 2.63972,4.38332 9.06565,4.38332 10.23924,0 10.1073,-1.35734 -1.99787,-20.55382 -12.09031,-19.17291 -12.00659,-19.50896 7.16005,-28.74297 17.30717,-8.33814 17.55441,-8.19887 32.02245,18.03754 14.61722,26.50696 -6.29019,77.34998 -32.96285,80.15961 -8.46861,0.89206 -10.1429,1.8159 -11.13365,6.14335 -1.83891,8.03223 -3.89988,6.30281 -15.74775,-13.21442 z m -48.409724,9.71683 c -18.398609,-0.92784 -21.675549,-1.65802 -24.097273,-5.36939 -25.480769,-39.05013 -32.19493,-57.79402 -26.85559,-74.97265 2.659007,-8.55501 2.76552,-11.08042 0.650097,-15.41364 -3.466995,-7.10178 -2.769688,-7.43335 16.726491,-7.95321 17.145896,-0.4572 17.145896,-0.4572 24.743174,19.8709 9.074375,24.28043 9.085317,24.40045 2.070144,22.71134 -4.630927,-1.11503 -5.901568,-0.42985 -7.836591,4.22591 -3.846152,9.25402 -3.139564,9.65013 17.213081,9.65013 23.266411,0 22.541801,-0.80024 24.521161,27.08004 1.64829,23.21697 3.65752,21.72341 -27.134694,20.17057 z M 65.208783,114.48462 C 46.656987,103.29236 46.920013,105.38318 61.120388,81.986004 75.115919,58.926331 73.034142,59.964792 105.26522,59.964792 c 33.05953,0 35.73068,0.889095 44.95386,14.963023 4.24972,6.484722 8.57851,10.810034 10.81878,10.810034 4.92122,0 4.76364,1.380612 -2.061,18.055691 -6.52932,15.95362 -5.1831,15.43535 -29.045,11.18205 -18.7598,-3.34383 -19.91708,-4.09429 -15.17408,-9.83975 3.28901,-3.98422 3.30607,-4.59725 0.26934,-9.67808 -4.92154,-8.23427 -7.17403,-6.784749 -18.34598,11.806 -12.073295,20.09056 -10.67273,19.76923 -31.472357,7.22086 z"
       id="path1" />
    <rect
       style="fill:#008000;stroke-width:0.251053"
       id="rect4"
       width="7.6814008"
       height="230.20842"
       x="-56.274624"
       y="66.695374"
       transform="matrix(0.74400129,-0.66817818,0.7931293,0.60905329,0,0)"
       inkscape:transform-center-x="5.6173858"
       inkscape:transform-center-y="-5.0793896" />
  </g>
</svg>
